<?xml version="1.0" encoding="UTF-8"?>
<svg id="Layer_1" xmlns="http://www.w3.org/2000/svg" version="1.1" xmlns:xlink="http://www.w3.org/1999/xlink" viewBox="0 0 1920 300">
  <!-- Generator: Adobe Illustrator 29.0.0, SVG Export Plug-In . SVG Version: 2.1.0 Build 186)  -->
  <defs>
    <style>
      .st0 {
        fill: url(#Golden_Ring31);
      }

      .st1 {
        fill: url(#Golden_Ring61);
      }

      .st2 {
        fill: url(#Golden_Ring33);
      }

      .st3 {
        fill: url(#Golden_Ring94);
      }

      .st4 {
        fill: url(#Golden_Ring18);
      }

      .st5 {
        fill: url(#Golden_Ring50);
      }

      .st6 {
        fill: url(#Golden_Ring38);
      }

      .st7 {
        fill: url(#Golden_Ring72);
      }

      .st8 {
        fill: url(#Golden_Ring11);
      }

      .st9 {
        fill: url(#Golden_Ring59);
      }

      .st10 {
        fill: url(#Golden_Ring29);
      }

      .st11 {
        fill: url(#Golden_Ring34);
      }

      .st12 {
        fill: url(#Golden_Ring43);
      }

      .st13 {
        fill: url(#Golden_Ring87);
      }

      .st14 {
        fill: url(#Golden_Ring85);
      }

      .st15 {
        fill: url(#Golden_Ring88);
      }

      .st16 {
        fill: url(#Golden_Ring15);
      }

      .st17 {
        fill: url(#Golden_Ring10);
      }

      .st18 {
        fill: url(#Golden_Ring56);
      }

      .st19 {
        fill: url(#Golden_Ring64);
      }

      .st20 {
        fill: url(#Golden_Ring71);
      }

      .st21 {
        fill: url(#Golden_Ring79);
      }

      .st22 {
        fill: url(#Golden_Ring44);
      }

      .st23 {
        fill: url(#Golden_Ring1);
      }

      .st24 {
        fill: url(#Golden_Ring);
      }

      .st25 {
        fill: url(#Golden_Ring14);
      }

      .st26 {
        fill: url(#Golden_Ring47);
      }

      .st27 {
        fill: url(#Golden_Ring81);
      }

      .st28 {
        fill: url(#Golden_Ring75);
      }

      .st29 {
        fill: url(#Golden_Ring73);
      }

      .st30 {
        fill: url(#Golden_Ring37);
      }

      .st31 {
        fill: url(#Golden_Ring67);
      }

      .st32 {
        fill: url(#Golden_Ring60);
      }

      .st33 {
        fill: url(#Golden_Ring62);
      }

      .st34 {
        fill: red;
      }

      .st35 {
        fill: url(#Golden_Ring89);
      }

      .st36 {
        fill: url(#Golden_Ring68);
      }

      .st37 {
        fill: url(#Golden_Ring30);
      }

      .st38 {
        fill: url(#Golden_Ring77);
      }

      .st39 {
        fill: url(#Golden_Ring45);
      }

      .st40 {
        fill: url(#Golden_Ring66);
      }

      .st41 {
        fill: url(#Golden_Ring2);
      }

      .st42 {
        fill: url(#Golden_Ring25);
      }

      .st43 {
        fill: url(#Golden_Ring58);
      }

      .st44 {
        fill: url(#Golden_Ring83);
      }

      .st45 {
        fill: url(#Golden_Ring70);
      }

      .st46 {
        fill: url(#Golden_Ring69);
      }

      .st47 {
        fill: url(#Golden_Ring16);
      }

      .st48 {
        fill: url(#Golden_Ring35);
      }

      .st49 {
        fill: url(#Golden_Ring46);
      }

      .st50 {
        fill: url(#Golden_Ring93);
      }

      .st51 {
        fill: url(#Golden_Ring22);
      }

      .st52 {
        fill: url(#Golden_Ring4);
      }

      .st53 {
        fill: url(#Golden_Ring57);
      }

      .st54 {
        fill: url(#Golden_Ring8);
      }

      .st55 {
        fill: url(#Golden_Ring98);
      }

      .st56 {
        fill: url(#Golden_Ring82);
      }

      .st57 {
        fill: url(#Golden_Ring12);
      }

      .st58 {
        fill: url(#Golden_Ring13);
      }

      .st59 {
        fill: url(#Golden_Ring48);
      }

      .st60 {
        fill: url(#Golden_Ring100);
      }

      .st61 {
        fill: url(#Golden_Ring40);
      }

      .st62 {
        fill: url(#Golden_Ring24);
      }

      .st63 {
        fill: url(#Golden_Ring49);
      }

      .st64 {
        fill: url(#Golden_Ring84);
      }

      .st65 {
        fill: url(#Golden_Ring9);
      }

      .st66 {
        fill: url(#Golden_Ring51);
      }

      .st67 {
        fill: url(#Golden_Ring54);
      }

      .st68 {
        fill: url(#Golden_Ring97);
      }

      .st69 {
        fill: url(#Golden_Ring65);
      }

      .st70 {
        fill: url(#Golden_Ring32);
      }

      .st71 {
        fill: url(#Golden_Ring17);
      }

      .st72 {
        fill: url(#Golden_Ring5);
      }

      .st73 {
        fill: url(#Golden_Ring92);
      }

      .st74 {
        fill: url(#Golden_Ring99);
      }

      .st75 {
        fill: url(#Golden_Ring76);
      }

      .st76 {
        fill: url(#Golden_Ring95);
      }

      .st77 {
        fill: url(#Golden_Ring78);
      }

      .st78 {
        fill: url(#Golden_Ring55);
      }

      .st79 {
        display: none;
      }

      .st80 {
        fill: url(#Golden_Ring19);
      }

      .st81 {
        fill: url(#Golden_Ring52);
      }

      .st82 {
        fill: url(#Golden_Ring80);
      }

      .st83 {
        fill: url(#Golden_Ring21);
      }

      .st84 {
        fill: url(#Golden_Ring27);
      }

      .st85 {
        fill: url(#Golden_Ring39);
      }

      .st86 {
        fill: url(#Golden_Ring41);
      }

      .st87 {
        fill: url(#Golden_Ring7);
      }

      .st88 {
        fill: url(#Golden_Ring53);
      }

      .st89 {
        fill: url(#Golden_Ring86);
      }

      .st90 {
        fill: url(#Golden_Ring74);
      }

      .st91 {
        fill: url(#Golden_Ring90);
      }

      .st92 {
        fill: url(#Golden_Ring36);
      }

      .st93 {
        fill: url(#Golden_Ring20);
      }

      .st94 {
        fill: url(#Golden_Ring28);
      }

      .st95 {
        fill: url(#Golden_Ring26);
      }

      .st96 {
        fill: url(#Golden_Ring91);
      }

      .st97 {
        fill: url(#Golden_Ring23);
      }

      .st98 {
        fill: url(#Golden_Ring6);
      }

      .st99 {
        fill: url(#Golden_Ring101);
      }

      .st100 {
        fill: url(#Golden_Ring42);
      }

      .st101 {
        fill: url(#Golden_Ring3);
      }

      .st102 {
        fill: url(#Golden_Ring63);
      }

      .st103 {
        fill: url(#Golden_Ring96);
      }
    </style>
    <radialGradient id="Golden_Ring" data-name="Golden Ring" cx="247.5" cy="52.5" fx="247.5" fy="52.5" r="175" gradientTransform="translate(-897.4 99) scale(1.9 1)" gradientUnits="userSpaceOnUse">
      <stop offset=".7" stop-color="#fff" stop-opacity="0"/>
      <stop offset=".8" stop-color="#fff" stop-opacity="0"/>
      <stop offset=".8" stop-color="#fff" stop-opacity="0"/>
      <stop offset=".8" stop-color="#fff" stop-opacity="0"/>
      <stop offset=".8" stop-color="#fff" stop-opacity=".2"/>
      <stop offset=".8" stop-color="#fff" stop-opacity=".3"/>
      <stop offset=".8" stop-color="#fff" stop-opacity=".4"/>
      <stop offset=".8" stop-color="#fff" stop-opacity=".5"/>
      <stop offset=".8" stop-color="#dbc01f"/>
      <stop offset=".8" stop-color="#f1dc3a"/>
      <stop offset=".8" stop-color="#f5e13f"/>
      <stop offset=".8" stop-color="#dbc01f"/>
      <stop offset=".9" stop-color="#e1ca45"/>
      <stop offset=".9" stop-color="#e9d876"/>
      <stop offset=".9" stop-color="#efe4a0"/>
      <stop offset=".9" stop-color="#f5eec2"/>
      <stop offset=".9" stop-color="#f9f5dd"/>
      <stop offset="1" stop-color="#fcfaf0"/>
      <stop offset="1" stop-color="#fefdfb"/>
      <stop offset="1" stop-color="#fff"/>
    </radialGradient>
    <radialGradient id="Golden_Ring1" data-name="Golden Ring" cx="261.6" cy="52.5" fx="261.6" fy="52.5" r="172.8" xlink:href="#Golden_Ring"/>
    <radialGradient id="Golden_Ring2" data-name="Golden Ring" cx="275.7" cy="52.5" fx="275.7" fy="52.5" r="170.5" xlink:href="#Golden_Ring"/>
    <radialGradient id="Golden_Ring3" data-name="Golden Ring" cx="289.8" cy="52.5" fx="289.8" fy="52.5" r="168.3" xlink:href="#Golden_Ring"/>
    <radialGradient id="Golden_Ring4" data-name="Golden Ring" cx="303.9" cy="52.5" fx="303.9" fy="52.5" r="166.1" xlink:href="#Golden_Ring"/>
    <radialGradient id="Golden_Ring5" data-name="Golden Ring" cx="318" cy="52.5" fx="318" fy="52.5" r="163.9" xlink:href="#Golden_Ring"/>
    <radialGradient id="Golden_Ring6" data-name="Golden Ring" cx="332.2" cy="52.5" fx="332.2" fy="52.5" r="161.6" xlink:href="#Golden_Ring"/>
    <radialGradient id="Golden_Ring7" data-name="Golden Ring" cx="346.3" cy="52.5" fx="346.3" fy="52.5" r="159.4" xlink:href="#Golden_Ring"/>
    <radialGradient id="Golden_Ring8" data-name="Golden Ring" cx="360.4" cy="52.5" fx="360.4" fy="52.5" r="157.2" xlink:href="#Golden_Ring"/>
    <radialGradient id="Golden_Ring9" data-name="Golden Ring" cx="374.5" cy="52.5" fx="374.5" fy="52.5" r="155" xlink:href="#Golden_Ring"/>
    <radialGradient id="Golden_Ring10" data-name="Golden Ring" cx="388.6" cy="52.5" fx="388.6" fy="52.5" r="152.8" xlink:href="#Golden_Ring"/>
    <radialGradient id="Golden_Ring11" data-name="Golden Ring" cx="402.7" cy="52.5" fx="402.7" fy="52.5" r="150.6" xlink:href="#Golden_Ring"/>
    <radialGradient id="Golden_Ring12" data-name="Golden Ring" cx="416.8" cy="52.5" fx="416.8" fy="52.5" r="148.3" xlink:href="#Golden_Ring"/>
    <radialGradient id="Golden_Ring13" data-name="Golden Ring" cx="430.9" cy="52.5" fx="430.9" fy="52.5" r="146.1" xlink:href="#Golden_Ring"/>
    <radialGradient id="Golden_Ring14" data-name="Golden Ring" cx="445" cy="52.5" fx="445" fy="52.5" r="143.9" xlink:href="#Golden_Ring"/>
    <radialGradient id="Golden_Ring15" data-name="Golden Ring" cx="459.1" cy="52.5" fx="459.1" fy="52.5" r="141.7" xlink:href="#Golden_Ring"/>
    <radialGradient id="Golden_Ring16" data-name="Golden Ring" cx="473.2" cy="52.5" fx="473.2" fy="52.5" r="139.5" xlink:href="#Golden_Ring"/>
    <radialGradient id="Golden_Ring17" data-name="Golden Ring" cx="487.4" fx="487.4" r="137.3" xlink:href="#Golden_Ring"/>
    <radialGradient id="Golden_Ring18" data-name="Golden Ring" cx="501.5" cy="52.5" fx="501.5" fy="52.5" r="135.1" xlink:href="#Golden_Ring"/>
    <radialGradient id="Golden_Ring19" data-name="Golden Ring" cx="515.6" cy="52.5" fx="515.6" fy="52.5" r="132.9" xlink:href="#Golden_Ring"/>
    <radialGradient id="Golden_Ring20" data-name="Golden Ring" cx="529.7" cy="52.5" fx="529.7" fy="52.5" r="130.7" xlink:href="#Golden_Ring"/>
    <radialGradient id="Golden_Ring21" data-name="Golden Ring" cx="543.8" cy="52.5" fx="543.8" fy="52.5" r="128.5" xlink:href="#Golden_Ring"/>
    <radialGradient id="Golden_Ring22" data-name="Golden Ring" cx="557.9" cy="52.5" fx="557.9" fy="52.5" r="126.3" xlink:href="#Golden_Ring"/>
    <radialGradient id="Golden_Ring23" data-name="Golden Ring" cx="572" cy="52.5" fx="572" fy="52.5" r="124.1" xlink:href="#Golden_Ring"/>
    <radialGradient id="Golden_Ring24" data-name="Golden Ring" cx="586.1" cy="52.5" fx="586.1" fy="52.5" r="122" xlink:href="#Golden_Ring"/>
    <radialGradient id="Golden_Ring25" data-name="Golden Ring" cx="600.2" cy="52.5" fx="600.2" fy="52.5" r="119.8" xlink:href="#Golden_Ring"/>
    <radialGradient id="Golden_Ring26" data-name="Golden Ring" cx="614.3" cy="52.5" fx="614.3" fy="52.5" r="117.6" xlink:href="#Golden_Ring"/>
    <radialGradient id="Golden_Ring27" data-name="Golden Ring" cx="628.4" cy="52.5" fx="628.4" fy="52.5" r="115.4" xlink:href="#Golden_Ring"/>
    <radialGradient id="Golden_Ring28" data-name="Golden Ring" cx="642.5" fx="642.5" r="113.2" xlink:href="#Golden_Ring"/>
    <radialGradient id="Golden_Ring29" data-name="Golden Ring" cx="656.7" cy="52.5" fx="656.7" fy="52.5" r="111.1" xlink:href="#Golden_Ring"/>
    <radialGradient id="Golden_Ring30" data-name="Golden Ring" cx="670.8" cy="52.5" fx="670.8" fy="52.5" r="108.9" xlink:href="#Golden_Ring"/>
    <radialGradient id="Golden_Ring31" data-name="Golden Ring" cx="684.9" cy="52.5" fx="684.9" fy="52.5" r="106.8" xlink:href="#Golden_Ring"/>
    <radialGradient id="Golden_Ring32" data-name="Golden Ring" cx="699" fx="699" r="104.6" xlink:href="#Golden_Ring"/>
    <radialGradient id="Golden_Ring33" data-name="Golden Ring" cx="713.1" cy="52.5" fx="713.1" fy="52.5" r="102.5" xlink:href="#Golden_Ring"/>
    <radialGradient id="Golden_Ring34" data-name="Golden Ring" cx="727.2" cy="52.5" fx="727.2" fy="52.5" r="100.7" xlink:href="#Golden_Ring"/>
    <radialGradient id="Golden_Ring35" data-name="Golden Ring" cx="741.3" fx="741.3" r="99.9" xlink:href="#Golden_Ring"/>
    <radialGradient id="Golden_Ring36" data-name="Golden Ring" cx="755.4" cy="52.5" fx="755.4" fy="52.5" r="99" xlink:href="#Golden_Ring"/>
    <radialGradient id="Golden_Ring37" data-name="Golden Ring" cx="769.5" cy="52.5" fx="769.5" fy="52.5" r="98.2" xlink:href="#Golden_Ring"/>
    <radialGradient id="Golden_Ring38" data-name="Golden Ring" cx="783.6" cy="52.5" fx="783.6" fy="52.5" r="97.4" xlink:href="#Golden_Ring"/>
    <radialGradient id="Golden_Ring39" data-name="Golden Ring" cx="797.7" cy="52.5" fx="797.7" fy="52.5" r="96.5" xlink:href="#Golden_Ring"/>
    <radialGradient id="Golden_Ring40" data-name="Golden Ring" cx="811.9" cy="52.5" fx="811.9" fy="52.5" r="95.7" xlink:href="#Golden_Ring"/>
    <radialGradient id="Golden_Ring41" data-name="Golden Ring" cx="826" fx="826" r="94.9" xlink:href="#Golden_Ring"/>
    <radialGradient id="Golden_Ring42" data-name="Golden Ring" cx="840.1" cy="52.5" fx="840.1" fy="52.5" r="94.1" xlink:href="#Golden_Ring"/>
    <radialGradient id="Golden_Ring43" data-name="Golden Ring" cx="854.2" cy="52.5" fx="854.2" fy="52.5" r="93.3" xlink:href="#Golden_Ring"/>
    <radialGradient id="Golden_Ring44" data-name="Golden Ring" cx="868.3" cy="52.5" fx="868.3" fy="52.5" r="92.5" xlink:href="#Golden_Ring"/>
    <radialGradient id="Golden_Ring45" data-name="Golden Ring" cx="882.4" cy="52.5" fx="882.4" fy="52.5" r="91.7" xlink:href="#Golden_Ring"/>
    <radialGradient id="Golden_Ring46" data-name="Golden Ring" cx="896.5" cy="52.5" fx="896.5" fy="52.5" r="90.9" xlink:href="#Golden_Ring"/>
    <radialGradient id="Golden_Ring47" data-name="Golden Ring" cx="910.6" cy="52.5" fx="910.6" fy="52.5" r="90.1" xlink:href="#Golden_Ring"/>
    <radialGradient id="Golden_Ring48" data-name="Golden Ring" cx="924.7" cy="52.5" fx="924.7" fy="52.5" r="89.4" xlink:href="#Golden_Ring"/>
    <radialGradient id="Golden_Ring49" data-name="Golden Ring" cx="938.8" cy="52.5" fx="938.8" fy="52.5" r="88.6" xlink:href="#Golden_Ring"/>
    <radialGradient id="Golden_Ring50" data-name="Golden Ring" cx="952.9" cy="52.5" fx="952.9" fy="52.5" r="87.9" xlink:href="#Golden_Ring"/>
    <radialGradient id="Golden_Ring51" data-name="Golden Ring" cx="967.1" cy="52.5" fx="967.1" fy="52.5" r="87.9" xlink:href="#Golden_Ring"/>
    <radialGradient id="Golden_Ring52" data-name="Golden Ring" cx="981.2" cy="52.5" fx="981.2" fy="52.5" r="88.6" xlink:href="#Golden_Ring"/>
    <radialGradient id="Golden_Ring53" data-name="Golden Ring" cx="995.3" cy="52.5" fx="995.3" fy="52.5" r="89.4" xlink:href="#Golden_Ring"/>
    <radialGradient id="Golden_Ring54" data-name="Golden Ring" cx="1009.4" cy="52.5" fx="1009.4" fy="52.5" r="90.1" xlink:href="#Golden_Ring"/>
    <radialGradient id="Golden_Ring55" data-name="Golden Ring" cx="1023.5" cy="52.5" fx="1023.5" fy="52.5" r="90.9" xlink:href="#Golden_Ring"/>
    <radialGradient id="Golden_Ring56" data-name="Golden Ring" cx="1037.6" cy="52.5" fx="1037.6" fy="52.5" r="91.7" xlink:href="#Golden_Ring"/>
    <radialGradient id="Golden_Ring57" data-name="Golden Ring" cx="1051.7" cy="52.5" fx="1051.7" fy="52.5" r="92.5" xlink:href="#Golden_Ring"/>
    <radialGradient id="Golden_Ring58" data-name="Golden Ring" cx="1065.8" cy="52.5" fx="1065.8" fy="52.5" r="93.3" xlink:href="#Golden_Ring"/>
    <radialGradient id="Golden_Ring59" data-name="Golden Ring" cx="1079.9" cy="52.5" fx="1079.9" fy="52.5" r="94.1" xlink:href="#Golden_Ring"/>
    <radialGradient id="Golden_Ring60" data-name="Golden Ring" cx="1094" fx="1094" r="94.9" xlink:href="#Golden_Ring"/>
    <radialGradient id="Golden_Ring61" data-name="Golden Ring" cx="1108.1" cy="52.5" fx="1108.1" fy="52.5" r="95.7" xlink:href="#Golden_Ring"/>
    <radialGradient id="Golden_Ring62" data-name="Golden Ring" cx="1122.3" cy="52.5" fx="1122.3" fy="52.5" r="96.5" xlink:href="#Golden_Ring"/>
    <radialGradient id="Golden_Ring63" data-name="Golden Ring" cx="1136.4" cy="52.5" fx="1136.4" fy="52.5" r="97.4" xlink:href="#Golden_Ring"/>
    <radialGradient id="Golden_Ring64" data-name="Golden Ring" cx="1150.5" cy="52.5" fx="1150.5" fy="52.5" r="98.2" xlink:href="#Golden_Ring"/>
    <radialGradient id="Golden_Ring65" data-name="Golden Ring" cx="1164.6" cy="52.5" fx="1164.6" fy="52.5" r="99" xlink:href="#Golden_Ring"/>
    <radialGradient id="Golden_Ring66" data-name="Golden Ring" cx="1178.7" fx="1178.7" r="99.9" xlink:href="#Golden_Ring"/>
    <radialGradient id="Golden_Ring67" data-name="Golden Ring" cx="1192.8" cy="52.5" fx="1192.8" fy="52.5" r="100.7" xlink:href="#Golden_Ring"/>
    <radialGradient id="Golden_Ring68" data-name="Golden Ring" cx="1206.9" cy="52.5" fx="1206.9" fy="52.5" r="102.5" xlink:href="#Golden_Ring"/>
    <radialGradient id="Golden_Ring69" data-name="Golden Ring" cx="1221" fx="1221" r="104.6" xlink:href="#Golden_Ring"/>
    <radialGradient id="Golden_Ring70" data-name="Golden Ring" cx="1235.1" cy="52.5" fx="1235.1" fy="52.5" r="106.8" xlink:href="#Golden_Ring"/>
    <radialGradient id="Golden_Ring71" data-name="Golden Ring" cx="1249.2" cy="52.5" fx="1249.2" fy="52.5" r="108.9" xlink:href="#Golden_Ring"/>
    <radialGradient id="Golden_Ring72" data-name="Golden Ring" cx="1263.3" cy="52.5" fx="1263.3" fy="52.5" r="111.1" xlink:href="#Golden_Ring"/>
    <radialGradient id="Golden_Ring73" data-name="Golden Ring" cx="1277.5" fx="1277.5" r="113.2" xlink:href="#Golden_Ring"/>
    <radialGradient id="Golden_Ring74" data-name="Golden Ring" cx="1291.6" cy="52.5" fx="1291.6" fy="52.5" r="115.4" xlink:href="#Golden_Ring"/>
    <radialGradient id="Golden_Ring75" data-name="Golden Ring" cx="1305.7" cy="52.5" fx="1305.7" fy="52.5" r="117.6" xlink:href="#Golden_Ring"/>
    <radialGradient id="Golden_Ring76" data-name="Golden Ring" cx="1319.8" cy="52.5" fx="1319.8" fy="52.5" r="119.8" xlink:href="#Golden_Ring"/>
    <radialGradient id="Golden_Ring77" data-name="Golden Ring" cx="1333.9" cy="52.5" fx="1333.9" fy="52.5" r="122" xlink:href="#Golden_Ring"/>
    <radialGradient id="Golden_Ring78" data-name="Golden Ring" cx="1348" cy="52.5" fx="1348" fy="52.5" r="124.1" xlink:href="#Golden_Ring"/>
    <radialGradient id="Golden_Ring79" data-name="Golden Ring" cx="1362.1" cy="52.5" fx="1362.1" fy="52.5" r="126.3" xlink:href="#Golden_Ring"/>
    <radialGradient id="Golden_Ring80" data-name="Golden Ring" cx="1376.2" cy="52.5" fx="1376.2" fy="52.5" r="128.5" xlink:href="#Golden_Ring"/>
    <radialGradient id="Golden_Ring81" data-name="Golden Ring" cx="1390.3" cy="52.5" fx="1390.3" fy="52.5" r="130.7" xlink:href="#Golden_Ring"/>
    <radialGradient id="Golden_Ring82" data-name="Golden Ring" cx="1404.4" cy="52.5" fx="1404.4" fy="52.5" r="132.9" xlink:href="#Golden_Ring"/>
    <radialGradient id="Golden_Ring83" data-name="Golden Ring" cx="1418.5" cy="52.5" fx="1418.5" fy="52.5" r="135.1" xlink:href="#Golden_Ring"/>
    <radialGradient id="Golden_Ring84" data-name="Golden Ring" cx="1432.6" fx="1432.6" r="137.3" xlink:href="#Golden_Ring"/>
    <radialGradient id="Golden_Ring85" data-name="Golden Ring" cx="1446.8" cy="52.5" fx="1446.8" fy="52.5" r="139.5" xlink:href="#Golden_Ring"/>
    <radialGradient id="Golden_Ring86" data-name="Golden Ring" cx="1460.9" cy="52.5" fx="1460.9" fy="52.5" r="141.7" xlink:href="#Golden_Ring"/>
    <radialGradient id="Golden_Ring87" data-name="Golden Ring" cx="1475" cy="52.5" fx="1475" fy="52.5" r="143.9" xlink:href="#Golden_Ring"/>
    <radialGradient id="Golden_Ring88" data-name="Golden Ring" cx="1489.1" cy="52.5" fx="1489.1" fy="52.5" r="146.1" xlink:href="#Golden_Ring"/>
    <radialGradient id="Golden_Ring89" data-name="Golden Ring" cx="1503.2" cy="52.5" fx="1503.2" fy="52.5" r="148.3" xlink:href="#Golden_Ring"/>
    <radialGradient id="Golden_Ring90" data-name="Golden Ring" cx="1517.3" cy="52.5" fx="1517.3" fy="52.5" r="150.6" xlink:href="#Golden_Ring"/>
    <radialGradient id="Golden_Ring91" data-name="Golden Ring" cx="1531.4" cy="52.5" fx="1531.4" fy="52.5" r="152.8" xlink:href="#Golden_Ring"/>
    <radialGradient id="Golden_Ring92" data-name="Golden Ring" cx="1545.5" cy="52.5" fx="1545.5" fy="52.5" r="155" xlink:href="#Golden_Ring"/>
    <radialGradient id="Golden_Ring93" data-name="Golden Ring" cx="1559.6" cy="52.5" fx="1559.6" fy="52.5" r="157.2" xlink:href="#Golden_Ring"/>
    <radialGradient id="Golden_Ring94" data-name="Golden Ring" cx="1573.7" cy="52.5" fx="1573.7" fy="52.5" r="159.4" xlink:href="#Golden_Ring"/>
    <radialGradient id="Golden_Ring95" data-name="Golden Ring" cx="1587.8" cy="52.5" fx="1587.8" fy="52.5" r="161.6" xlink:href="#Golden_Ring"/>
    <radialGradient id="Golden_Ring96" data-name="Golden Ring" cx="1602" cy="52.5" fx="1602" fy="52.5" r="163.9" xlink:href="#Golden_Ring"/>
    <radialGradient id="Golden_Ring97" data-name="Golden Ring" cx="1616.1" cy="52.5" fx="1616.1" fy="52.5" r="166.1" xlink:href="#Golden_Ring"/>
    <radialGradient id="Golden_Ring98" data-name="Golden Ring" cx="1630.2" cy="52.5" fx="1630.2" fy="52.5" r="168.3" xlink:href="#Golden_Ring"/>
    <radialGradient id="Golden_Ring99" data-name="Golden Ring" cx="1644.3" cy="52.5" fx="1644.3" fy="52.5" r="170.5" xlink:href="#Golden_Ring"/>
    <radialGradient id="Golden_Ring100" data-name="Golden Ring" cx="1658.4" cy="52.5" fx="1658.4" fy="52.5" r="172.8" xlink:href="#Golden_Ring"/>
    <radialGradient id="Golden_Ring101" data-name="Golden Ring" cx="1672.5" fx="1672.5" r="175" xlink:href="#Golden_Ring"/>
  </defs>
  <g>
    <path class="st24" d="M-253.9-11.7L-78.3,152.5l-175.7,164.2h-351.4l-175.7-164.2L-605.3-11.7H-253.9M-252.9-12.7h-353.5l-176.8,165.2,176.8,165.2H-252.9L-76.1,152.5-252.9-12.7h0Z"/>
    <path class="st23" d="M-232.5-10.1L-56.8,150.9l-170.4,162.6-346.1,1.6-175.7-161L-578.6-8.5l346.1-1.6M-231.4-11.1l-348.3,1.6-171.5,163.6,176.8,162,348.3-1.6L-54.7,150.9-231.4-11.1h0Z"/>
    <path class="st41" d="M-211.1-8.4L-35.4,149.2l-165.2,160.9-340.9,3.3-175.6-157.7L-551.9-5.2l340.9-3.3M-210-9.5l-343,3.3-166.3,162,176.8,158.7,343-3.3L-33.2,149.2-210-9.5h0Z"/>
    <path class="st101" d="M-189.6-6.8L-14,147.6l-160,159.3-335.6,4.9-175.6-154.4L-525.3-1.9-189.6-6.8M-188.6-7.8l-337.8,4.9-161,160.3,176.8,155.4,337.8-4.9L-11.8,147.6-188.6-7.8h0Z"/>
    <path class="st52" d="M-168.2-5.2L7.4,146l-154.7,157.7-330.4,6.5-175.6-151.2L-498.6,1.3-168.2-5.2M-167.2-6.2L-499.7.3l-155.8,158.7,176.8,152.2,332.5-6.5L9.6,146-167.2-6.2h0Z"/>
    <path class="st72" d="M-146.8-3.5L28.8,144.4l-149.5,156-325.1,8.1-175.6-147.9L-471.9,4.6-146.8-3.5M-145.8-4.6L-473.1,3.6l-150.5,157.1,176.8,148.9,327.3-8.2L31,144.3-145.8-4.6h0Z"/>
    <path class="st98" d="M-125.3-1.9L50.2,142.8l-144.3,154.4-319.9,9.7-175.6-144.6L-445.2,7.9-125.3-1.9M-124.4-2.9L-446.4,6.9l-145.3,155.4,176.8,145.6,322-9.8L52.4,142.7-124.4-2.9h0Z"/>
    <path class="st87" d="M-103.9-.2L71.6,141.1l-139.1,152.7-314.6,11.4-175.6-141.4L-418.5,11.1-103.9-.2M-102.9-1.3l-316.8,11.5-140,153.8,176.8,142.3,316.8-11.5L73.8,141-102.9-1.3h0Z"/>
    <path class="st54" d="M-82.5,1.4L93.1,139.5-40.8,290.6l-309.4,13-175.5-138.1L-391.8,14.4-82.5,1.4M-81.5.3l-311.5,13.1-134.8,152.2,176.8,139.1,311.5-13.1L95.2,139.4-81.5.3h0Z"/>
    <path class="st65" d="M-61,3.1L114.5,137.9-14.1,287.3l-304.1,14.6-175.5-134.8L-365.2,17.7-61,3.1M-60.1,2l-306.3,14.7-129.5,150.5,176.8,135.8,306.3-14.7L116.7,137.8-60.1,2h0Z"/>
    <path class="st17" d="M-39.6,4.7l175.5,131.6L12.5,284.1l-298.9,16.2-175.5-131.6L-338.5,20.9-39.6,4.7M-38.7,3.6l-301,16.4-124.3,148.9,176.8,132.5L13.8,285l124.3-148.9L-38.7,3.6h0Z"/>
    <path class="st8" d="M-18.2,6.3l175.5,128.3-118.1,146.2-293.6,17.9-175.5-128.3L-311.8,24.2-18.2,6.3M-17.3,5.3l-295.8,18-119,147.2,176.8,129.2,295.8-18,119-147.2L-17.3,5.3h0Z"/>
    <path class="st57" d="M3.3,8l175.5,125-112.9,144.5-288.4,19.5-175.5-125L-285.1,27.5,3.3,8M4.1,6.9l-290.5,19.6-113.8,145.6,176.8,126,290.5-19.6,113.8-145.6L4.1,6.9h0Z"/>
    <path class="st58" d="M24.7,9.6l175.4,121.8-107.7,142.9-283.1,21.1-175.4-121.8L-258.4,30.7,24.7,9.6M25.5,8.5l-285.3,21.3-108.5,144,176.8,122.7,285.3-21.3,108.5-144L25.5,8.5h0Z"/>
    <path class="st25" d="M46.2,11.3l175.4,118.5-102.5,141.2-277.9,22.7-175.4-118.5L-231.7,34,46.2,11.3M47,10.2l-280,22.9-103.3,142.3,176.8,119.4,280-22.9,103.3-142.3L47,10.2h0Z"/>
    <path class="st16" d="M67.6,12.9l175.4,115.2-97.2,139.6-272.6,24.3-175.4-115.2L-205,37.3,67.6,12.9M68.4,11.8l-274.8,24.5-98,140.7,176.8,116.2,274.8-24.5,98-140.7L68.4,11.8h0Z"/>
    <path class="st47" d="M89.1,14.5l175.4,112-92,138-267.4,26-175.4-112L-178.3,40.5,89.1,14.5M89.8,13.4l-269.5,26.2-92.8,139.1,176.8,112.9,269.5-26.2,92.8-139.1L89.8,13.4h0Z"/>
    <path class="st71" d="M110.5,16.2l175.3,108.7-86.8,136.3-262.1,27.6-175.3-108.7L-151.6,43.8,110.5,16.2M111.2,15.1l-264.3,27.8-87.5,137.4,176.8,109.6,264.3-27.8,87.5-137.4L111.2,15.1h0Z"/>
    <path class="st4" d="M131.9,17.8l175.3,105.5-81.6,134.7-256.9,29.2-175.3-105.5L-125,47,131.9,17.8M132.6,16.7L-126.4,46.2l-82.3,135.8L-31.9,288.3l259-29.4,82.3-135.8L132.6,16.7h0Z"/>
    <path class="st80" d="M153.4,19.5l175.3,102.2-76.4,133L.7,285.5l-175.3-102.2L-98.3,50.3l251.7-30.8M154,18.3l-253.8,31.1-77,134.2L0,286.7l253.8-31.1,77-134.2L154,18.3h0Z"/>
    <path class="st93" d="M174.8,21.1l175.3,98.9-71.1,131.4-246.4,32.4-175.3-98.9L-71.6,53.6,174.8,21.1M175.5,20L-73.1,52.7l-71.8,132.5L31.9,285l248.5-32.7,71.8-132.5L175.5,20h0Z"/>
    <path class="st83" d="M196.3,22.8l175.2,95.7-65.9,129.7-241.2,34.1-175.2-95.7L-44.9,56.8,196.3,22.8M196.9,21.6L-46.4,56l-66.5,130.9,176.8,96.5,243.3-34.4,66.5-130.9L196.9,21.6h0Z"/>
    <path class="st51" d="M217.7,24.4l175.2,92.4-60.7,128.1-235.9,35.7-175.2-92.4L-18.2,60.1,217.7,24.4M218.3,23.3L-19.7,59.2l-61.3,129.2,176.8,93.3,238-36,61.3-129.2L218.3,23.3h0Z"/>
    <path class="st97" d="M239.2,26l175.2,89.2-55.5,126.5-230.7,37.3L-47,189.8,8.5,63.3,239.2,26M239.7,24.9L6.9,62.5l-56,127.6,176.8,90,232.8-37.6,56-127.6L239.7,24.9h0Z"/>
    <path class="st62" d="M260.6,27.7l175.2,85.9-50.3,124.8-225.5,38.9L-15.1,191.4l50.3-124.8,225.5-38.9M261.1,26.5L33.6,65.8l-50.8,126,176.8,86.7,227.5-39.3,50.8-126L261.1,26.5h0Z"/>
    <path class="st42" d="M282.1,29.3l175.1,82.7-45.1,123.2-220.2,40.5L16.8,193l45.1-123.2,220.2-40.5M282.5,28.2L60.2,69.1,14.7,193.4l176.8,83.4,222.3-40.9,45.5-124.3L282.5,28.2h0Z"/>
    <path class="st95" d="M303.6,31l175.1,79.4-39.9,121.5-215,42.1L48.7,194.6l39.9-121.5,215-42.1M303.9,29.8l-217,42.5-40.3,122.7,176.8,80.2,217-42.5,40.3-122.7L303.9,29.8h0Z"/>
    <path class="st84" d="M325,32.6l175.1,76.2-34.7,119.9-209.7,43.7-175.1-76.2,34.7-119.9,209.7-43.7M325.4,31.4l-211.8,44.2-35,121.1,176.8,76.9,211.8-44.2,35-121.1L325.4,31.4h0Z"/>
    <path class="st94" d="M346.5,34.2l175,72.9-29.5,118.3-204.5,45.4-175-72.9,29.5-118.3,204.5-45.4M346.8,33.1l-206.5,45.8-29.8,119.4,176.8,73.6,206.5-45.8,29.8-119.4-176.8-73.6h0Z"/>
    <path class="st10" d="M367.9,35.9l175,69.7-24.3,116.6-199.3,47-175-69.7,24.3-116.6,199.3-47M368.2,34.7l-201.3,47.4-24.5,117.8,176.8,70.3,201.3-47.4,24.5-117.8-176.8-70.3h0Z"/>
    <path class="st37" d="M389.4,37.5l175,66.4-19.1,115-194,48.6-175-66.4,19.1-115,194-48.6M389.6,36.3l-196,49.1-19.3,116.2,176.8,67.1,196-49.1,19.3-116.2-176.8-67.1h0Z"/>
    <path class="st0" d="M410.9,39.2l175,63.2-13.9,113.3-188.8,50.2-175-63.2,13.9-113.3,188.8-50.2M411,38l-190.8,50.7-14,114.5,176.8,63.8,190.8-50.7,14-114.5-176.8-63.8h0Z"/>
    <path class="st70" d="M432.3,40.8l174.9,59.9-8.7,111.7-183.6,51.8-174.9-59.9,8.7-111.7,183.6-51.8M432.4,39.6l-185.5,52.4-8.8,112.9,176.8,60.5,185.5-52.4,8.8-112.9-176.8-60.5h0Z"/>
    <path class="st2" d="M453.8,42.4l174.9,56.7-3.5,110.1-178.4,53.4-174.9-56.7,3.5-110.1,178.4-53.4M453.8,41.2l-180.3,54-3.5,111.3,176.8,57.3,180.3-54,3.5-111.3-176.8-57.3h0Z"/>
    <path class="st11" d="M475.3,44.1l174.9,53.4,1.7,108.4-173.1,55-174.9-53.4-1.7-108.4,173.1-55M475.3,42.9l-175,55.6,1.8,109.6,176.8,54,175-55.6-1.8-109.6-176.8-54h0Z"/>
    <path class="st48" d="M496.8,45.7l174.8,50.2,6.9,106.8-167.9,56.6-174.8-50.2-6.9-106.8,167.9-56.6M496.7,44.5l-169.8,57.3,7,108,176.8,50.7,169.8-57.3-7-108-176.8-50.7h0Z"/>
    <path class="st92" d="M518.2,47.3l174.8,46.9,12.1,105.2-162.7,58.2-174.8-46.9-12.1-105.2,162.7-58.2M518.1,46.2l-164.5,58.9,12.3,106.3,176.8,47.4,164.5-58.9-12.3-106.3-176.8-47.4h0Z"/>
    <path class="st30" d="M539.7,49l174.8,43.7,17.3,103.5-157.5,59.9-174.8-43.7-17.3-103.5,157.5-59.9M539.5,47.8l-159.3,60.5,17.5,104.7,176.8,44.2,159.3-60.5-17.5-104.7-176.8-44.2h0Z"/>
    <path class="st6" d="M561.2,50.6l174.8,40.4,22.5,101.9-152.3,61.5-174.8-40.4-22.5-101.9,152.3-61.5M560.9,49.4l-154,62.2,22.8,103.1,176.8,40.9,154-62.2-22.8-103.1-176.8-40.9h0Z"/>
    <path class="st85" d="M582.7,52.2l174.7,37.2,27.7,100.3-147.1,63.1-174.7-37.2-27.7-100.3,147.1-63.1M582.3,51.1l-148.8,63.8,28,101.4,176.8,37.6,148.8-63.8-28-101.4-176.8-37.6h0Z"/>
    <path class="st61" d="M604.1,53.9l174.7,34,32.9,98.6-141.9,64.7-174.7-34-32.9-98.6,141.9-64.7M603.8,52.7l-143.5,65.4,33.3,99.8,176.8,34.4,143.5-65.4-33.3-99.8-176.8-34.4h0Z"/>
    <path class="st86" d="M625.6,55.5l174.7,30.7,38.1,97-136.6,66.3-174.7-30.7-38.1-97,136.6-66.3M625.2,54.3l-138.3,67.1,38.5,98.2,176.8,31.1,138.3-67.1-38.5-98.2-176.8-31.1h0Z"/>
    <path class="st100" d="M647.1,57.1l174.7,27.5,43.2,95.4-131.4,67.9-174.7-27.5-43.2-95.4,131.4-67.9M646.6,56l-133,68.7,43.8,96.5,176.8,27.8,133-68.7-43.8-96.5-176.8-27.8h0Z"/>
    <path class="st12" d="M668.6,58.7l174.7,24.2,48.4,93.8-126.2,69.5-174.7-24.2-48.4-93.8,126.2-69.5M668,57.6l-127.8,70.3,49,94.9,176.8,24.5,127.8-70.3-49-94.9-176.8-24.5h0Z"/>
    <path class="st22" d="M690.1,60.4l174.6,21,53.6,92.1-121,71.1-174.6-21-53.6-92.1,121-71.1M689.4,59.2l-122.5,72,54.3,93.3,176.8,21.3,122.5-72-54.3-93.3-176.8-21.3h0Z"/>
    <path class="st39" d="M711.6,62l174.6,17.8,58.8,90.5-115.8,72.7-174.6-17.8-58.8-90.5,115.8-72.7M710.8,60.9l-117.3,73.6,59.5,91.6,176.8,18,117.3-73.6-59.5-91.6-176.8-18h0Z"/>
    <path class="st49" d="M733,63.6l174.6,14.5,64,88.9-110.6,74.3-174.6-14.5-64-88.9,110.6-74.3M732.2,62.5l-112,75.3,64.8,90,176.8,14.7,112-75.3-64.8-90-176.8-14.7h0Z"/>
    <path class="st26" d="M754.5,65.2l174.6,11.3,69.2,87.3-105.5,76-174.6-11.3-69.2-87.3,105.5-76M753.7,64.2l-106.8,76.9,70,88.3,176.8,11.5,106.8-76.9-70-88.3-176.8-11.5h0Z"/>
    <path class="st59" d="M776,66.9l174.6,8.1,74.3,85.6-100.3,77.6-174.6-8.1-74.3-85.6,100.3-77.6M775.1,65.8l-101.5,78.5,75.3,86.7,176.8,8.2,101.5-78.5-75.3-86.7-176.8-8.2h0Z"/>
    <path class="st63" d="M797.5,68.5l174.6,4.8,79.5,84-95.1,79.2-174.6-4.8-79.5-84,95.1-79.2M796.5,67.4l-96.3,80.2,80.5,85.1,176.8,4.9,96.3-80.2-80.5-85.1-176.8-4.9h0Z"/>
    <path class="st5" d="M819,70.1l174.6,1.6,84.7,82.4-89.9,80.8-174.6-1.6-84.7-82.4,89.9-80.8M817.9,69.1l-91,81.8,85.8,83.4,176.8,1.6,91-81.8-85.8-83.4-176.8-1.6h0Z"/>
    <path class="st66" d="M1015,70.1l89.9,80.8-84.7,82.4-174.6,1.6-89.9-80.8,84.7-82.4,174.6-1.6M1016.1,69.1l-176.8,1.6-85.8,83.4,91,81.8,176.8-1.6,85.8-83.4-91-81.8h0Z"/>
    <path class="st81" d="M1036.5,68.5l95.1,79.2-79.5,84-174.6,4.8-95.1-79.2,79.5-84,174.6-4.8M1037.5,67.4l-176.8,4.9-80.5,85.1,96.3,80.2,176.8-4.9,80.5-85.1-96.3-80.2h0Z"/>
    <path class="st88" d="M1058,66.9l100.3,77.6-74.3,85.6-174.6,8.1-100.3-77.6,74.3-85.6,174.6-8.1M1058.9,65.8l-176.8,8.2-75.3,86.7,101.5,78.5,176.8-8.2,75.3-86.7-101.5-78.5h0Z"/>
    <path class="st67" d="M1079.5,65.2l105.5,76-69.2,87.3-174.6,11.3-105.5-76,69.2-87.3,174.6-11.3M1080.3,64.2l-176.8,11.5-70,88.3,106.8,76.9,176.8-11.5,70-88.3-106.8-76.9h0Z"/>
    <path class="st78" d="M1101,63.6l110.6,74.3-64,88.9-174.6,14.5-110.6-74.3,64-88.9,174.6-14.5M1101.8,62.5l-176.8,14.7-64.8,90,112,75.3,176.8-14.7,64.8-90-112-75.3h0Z"/>
    <path class="st18" d="M1122.4,62l115.8,72.7-58.8,90.5-174.6,17.8-115.8-72.7,58.8-90.5,174.6-17.8M1123.2,60.9l-176.8,18-59.5,91.6,117.3,73.6,176.8-18,59.5-91.6-117.3-73.6h0Z"/>
    <path class="st53" d="M1143.9,60.4l121,71.1-53.6,92.1-174.6,21-121-71.1,53.6-92.1,174.6-21M1144.6,59.2l-176.8,21.3-54.3,93.3,122.5,72,176.8-21.3,54.3-93.3-122.5-72h0Z"/>
    <path class="st43" d="M1165.4,58.7l126.2,69.5-48.4,93.8-174.7,24.2-126.2-69.5,48.4-93.8,174.7-24.2M1166,57.6l-176.8,24.5-49,94.9,127.8,70.3,176.8-24.5,49-94.9-127.8-70.3h0Z"/>
    <path class="st9" d="M1186.9,57.1l131.4,67.9-43.2,95.4-174.7,27.5-131.4-67.9,43.2-95.4,174.7-27.5M1187.4,56l-176.8,27.8-43.8,96.5,133,68.7,176.8-27.8,43.8-96.5-133-68.7h0Z"/>
    <path class="st32" d="M1208.4,55.5l136.6,66.3-38.1,97-174.7,30.7-136.6-66.3,38.1-97,174.7-30.7M1208.8,54.3l-176.8,31.1-38.5,98.2,138.3,67.1,176.8-31.1,38.5-98.2-138.3-67.1h0Z"/>
    <path class="st1" d="M1229.9,53.9l141.9,64.7-32.9,98.6-174.7,34-141.9-64.7,32.9-98.6,174.7-34M1230.2,52.7l-176.8,34.4-33.3,99.8,143.5,65.4,176.8-34.4,33.3-99.8-143.5-65.4h0Z"/>
    <path class="st33" d="M1251.3,52.2l147.1,63.1-27.7,100.3-174.7,37.2-147.1-63.1,27.7-100.3,174.7-37.2M1251.7,51.1l-176.8,37.6-28,101.4,148.8,63.8,176.8-37.6,28-101.4-148.8-63.8h0Z"/>
    <path class="st102" d="M1272.8,50.6l152.3,61.5-22.5,101.9-174.8,40.4-152.3-61.5,22.5-101.9,174.8-40.4M1273.1,49.4l-176.8,40.9-22.8,103.1,154,62.2,176.8-40.9,22.8-103.1-154-62.2h0Z"/>
    <path class="st19" d="M1294.3,49l157.5,59.9-17.3,103.5-174.8,43.7-157.5-59.9,17.3-103.5,174.8-43.7M1294.5,47.8l-176.8,44.2-17.5,104.7,159.3,60.5,176.8-44.2,17.5-104.7-159.3-60.5h0Z"/>
    <path class="st69" d="M1315.8,47.3l162.7,58.2-12.1,105.2-174.8,46.9-162.7-58.2,12.1-105.2,174.8-46.9M1315.9,46.2l-176.8,47.4-12.3,106.3,164.5,58.9,176.8-47.4,12.3-106.3-164.5-58.9h0Z"/>
    <path class="st40" d="M1337.2,45.7l167.9,56.6-6.9,106.8-174.8,50.2-167.9-56.6,6.9-106.8,174.8-50.2M1337.3,44.5l-176.8,50.7-7,108,169.8,57.3,176.8-50.7,7-108-169.8-57.3h0Z"/>
    <path class="st31" d="M1358.7,44.1l173.1,55-1.7,108.4-174.9,53.4-173.1-55,1.7-108.4,174.9-53.4M1358.7,42.9l-176.8,54-1.8,109.6,175,55.6,176.8-54,1.8-109.6-175-55.6h0Z"/>
    <path class="st36" d="M1380.2,42.4l178.4,53.4,3.5,110.1-174.9,56.7-178.4-53.4-3.5-110.1,174.9-56.7M1380.2,41.2l-176.8,57.3,3.5,111.3,180.3,54,176.8-57.3-3.5-111.3-180.3-54h0Z"/>
    <path class="st46" d="M1401.7,40.8l183.6,51.8,8.7,111.7-174.9,59.9-183.6-51.8-8.7-111.7,174.9-59.9M1401.6,39.6l-176.8,60.5,8.8,112.9,185.5,52.4,176.8-60.5-8.8-112.9-185.5-52.4h0Z"/>
    <path class="st45" d="M1423.1,39.2l188.8,50.2,13.9,113.3-175,63.2-188.8-50.2-13.9-113.3,175-63.2M1423,38l-176.8,63.8,14,114.5,190.8,50.7,176.8-63.8-14-114.5-190.8-50.7h0Z"/>
    <path class="st20" d="M1444.6,37.5l194,48.6,19.1,115-175,66.4-194-48.6-19.1-115,175-66.4M1444.4,36.3l-176.8,67.1,19.3,116.2,196,49.1,176.8-67.1-19.3-116.2-196-49.1h0Z"/>
    <path class="st7" d="M1466.1,35.9l199.3,47,24.3,116.6-175,69.7-199.3-47-24.3-116.6,175-69.7M1465.8,34.7l-176.8,70.3,24.5,117.8,201.3,47.4,176.8-70.3-24.5-117.8-201.3-47.4h0Z"/>
    <path class="st29" d="M1487.5,34.2l204.5,45.4,29.5,118.3-175,72.9-204.5-45.4-29.5-118.3,175-72.9M1487.2,33.1l-176.8,73.6,29.8,119.4,206.5,45.8,176.8-73.6-29.8-119.4-206.5-45.8h0Z"/>
    <path class="st90" d="M1509,32.6l209.7,43.7,34.7,119.9-175.1,76.2-209.7-43.7-34.7-119.9,175.1-76.2M1508.6,31.4l-176.8,76.9,35,121.1,211.8,44.2,176.8-76.9-35-121.1-211.8-44.2h0Z"/>
    <path class="st28" d="M1530.4,31l215,42.1,39.9,121.5-175.1,79.4-215-42.1-39.9-121.5,175.1-79.4M1530.1,29.8l-176.8,80.2,40.3,122.7,217,42.5,176.8-80.2-40.3-122.7-217-42.5h0Z"/>
    <path class="st75" d="M1551.9,29.3l220.2,40.5,45.1,123.2-175.1,82.7-220.2-40.5-45.1-123.2,175.1-82.7M1551.5,28.2l-176.8,83.4,45.5,124.3,222.3,40.9,176.8-83.4-45.5-124.3-222.3-40.9h0Z"/>
    <path class="st38" d="M1573.4,27.7l225.5,38.9,50.3,124.8-175.2,85.9-225.5-38.9-50.3-124.8,175.2-85.9M1572.9,26.5l-176.8,86.7,50.8,126,227.5,39.3,176.8-86.7-50.8-126-227.5-39.3h0Z"/>
    <path class="st77" d="M1594.8,26l230.7,37.3,55.5,126.5-175.2,89.2-230.7-37.3-55.5-126.5,175.2-89.2M1594.3,24.9l-176.8,90,56,127.6,232.8,37.6,176.8-90-56-127.6-232.8-37.6h0Z"/>
    <path class="st21" d="M1616.3,24.4l235.9,35.7,60.7,128.1-175.2,92.4-235.9-35.7-60.7-128.1,175.2-92.4M1615.7,23.3l-176.8,93.3,61.3,129.2,238,36,176.8-93.3-61.3-129.2-238-36h0Z"/>
    <path class="st82" d="M1637.7,22.8l241.2,34.1,65.9,129.7-175.2,95.7-241.2-34.1-65.9-129.7,175.2-95.7M1637.1,21.6l-176.8,96.5,66.5,130.9,243.3,34.4,176.8-96.5-66.5-130.9-243.3-34.4h0Z"/>
    <path class="st27" d="M1659.2,21.1l246.4,32.4,71.1,131.4-175.3,98.9-246.4-32.4-71.1-131.4,175.3-98.9M1658.5,20l-176.8,99.8,71.8,132.5,248.5,32.7,176.8-99.8-71.8-132.5-248.5-32.7h0Z"/>
    <path class="st56" d="M1680.6,19.5l251.7,30.8,76.4,133-175.3,102.2-251.7-30.8-76.4-133,175.3-102.2M1680,18.3l-176.8,103.1,77,134.2,253.8,31.1,176.8-103.1-77-134.2-253.8-31.1h0Z"/>
    <path class="st44" d="M1702.1,17.8l256.9,29.2,81.6,134.7-175.3,105.5-256.9-29.2-81.6-134.7,175.3-105.5M1701.4,16.7l-176.8,106.3,82.3,135.8,259,29.4,176.8-106.3-82.3-135.8-259-29.4h0Z"/>
    <path class="st64" d="M1723.5,16.2l262.1,27.6,86.8,136.3-175.3,108.7-262.1-27.6-86.8-136.3,175.3-108.7M1722.8,15.1l-176.8,109.6,87.5,137.4,264.3,27.8,176.8-109.6-87.5-137.4-264.3-27.8h0Z"/>
    <path class="st14" d="M1744.9,14.5l267.4,26,92,138-175.4,112-267.4-26-92-138,175.4-112M1744.2,13.4l-176.8,112.9,92.8,139.1,269.5,26.2,176.8-112.9-92.8-139.1-269.5-26.2h0Z"/>
    <path class="st89" d="M1766.4,12.9l272.6,24.3,97.2,139.6-175.4,115.2-272.6-24.3-97.2-139.6,175.4-115.2M1765.6,11.8l-176.8,116.2,98,140.7,274.8,24.5,176.8-116.2-98-140.7-274.8-24.5h0Z"/>
    <path class="st13" d="M1787.8,11.3l277.9,22.7,102.5,141.2-175.4,118.5-277.9-22.7-102.5-141.2,175.4-118.5M1787,10.2l-176.8,119.4,103.3,142.3,280,22.9,176.8-119.4-103.3-142.3-280-22.9h0Z"/>
    <path class="st15" d="M1809.3,9.6l283.1,21.1,107.7,142.9-175.4,121.8-283.1-21.1-107.7-142.9,175.4-121.8M1808.5,8.5l-176.8,122.7,108.5,144,285.3,21.3,176.8-122.7-108.5-144-285.3-21.3h0Z"/>
    <path class="st35" d="M1830.7,8l288.4,19.5,112.9,144.5-175.5,125-288.4-19.5-112.9-144.5L1830.7,8M1829.9,6.9l-176.8,126,113.8,145.6,290.5,19.6,176.8-126-113.8-145.6-290.5-19.6h0Z"/>
    <path class="st91" d="M1852.2,6.3l293.6,17.9,118.1,146.2-175.5,128.3-293.6-17.9-118.1-146.2L1852.2,6.3M1851.3,5.3l-176.8,129.2,119,147.2,295.8,18,176.8-129.2-119-147.2-295.8-18h0Z"/>
    <path class="st96" d="M1873.6,4.7l298.9,16.2,123.4,147.8-175.5,131.6-298.9-16.2-123.4-147.8L1873.6,4.7M1872.7,3.6l-176.8,132.5,124.3,148.9,301,16.4,176.8-132.5-124.3-148.9L1872.7,3.6h0Z"/>
    <path class="st73" d="M1895,3.1l304.1,14.6,128.6,149.4-175.5,134.8-304.1-14.6-128.6-149.4L1895,3.1M1894.1,2l-176.8,135.8,129.5,150.5,306.3,14.7,176.8-135.8-129.5-150.5L1894.1,2h0Z"/>
    <path class="st50" d="M1916.5,1.4l309.4,13,133.8,151.1-175.5,138.1-309.4-13-133.8-151.1L1916.5,1.4M1915.5.3l-176.8,139.1,134.8,152.2,311.5,13.1,176.8-139.1-134.8-152.2L1915.5.3h0Z"/>
    <path class="st3" d="M1937.9-.2l314.6,11.4,139.1,152.7-175.6,141.4-314.6-11.4-139.1-152.7L1937.9-.2M1936.9-1.3l-176.8,142.3,140,153.8,316.8,11.5,176.8-142.3-140-153.8L1936.9-1.3h0Z"/>
    <path class="st76" d="M1959.3-1.9l319.9,9.7,144.3,154.4-175.6,144.6-319.9-9.7-144.3-154.4L1959.3-1.9M1958.4-2.9l-176.8,145.6,145.3,155.4,322,9.8,176.8-145.6L2280.4,6.9l-322-9.8h0Z"/>
    <path class="st103" d="M1980.8-3.5l325.1,8.1,149.5,156-175.6,147.9-325.1-8.1-149.5-156L1980.8-3.5M1979.8-4.6l-176.8,148.9,150.5,157.1,327.3,8.2,176.8-148.9L2307.1,3.6l-327.3-8.2h0Z"/>
    <path class="st68" d="M2002.2-5.2l330.4,6.5,154.7,157.7-175.6,151.2-330.4-6.5-154.7-157.7L2002.2-5.2M2001.2-6.2l-176.8,152.2,155.8,158.7,332.5,6.5,176.8-152.2L2333.7.3l-332.5-6.5h0Z"/>
    <path class="st55" d="M2023.6-6.8l335.6,4.9,160,159.3-175.6,154.4-335.6-4.9-160-159.3L2023.6-6.8M2022.6-7.8l-176.8,155.4,161,160.3,337.8,4.9,176.8-155.4L2360.4-2.9l-337.8-4.9h0Z"/>
    <path class="st74" d="M2045.1-8.4l340.9,3.3,165.2,160.9-175.6,157.7-340.9-3.3-165.2-160.9L2045.1-8.4M2044-9.5l-176.8,158.7,166.3,162,343,3.3,176.8-158.7L2387.1-6.2l-343-3.3h0Z"/>
    <path class="st60" d="M2066.5-10.1l346.1,1.6,170.4,162.6-175.7,161-346.1-1.6-170.4-162.6,175.7-161M2065.4-11.1l-176.8,162,171.5,163.6,348.3,1.6,176.8-162-171.5-163.6-348.3-1.6h0Z"/>
    <path class="st99" d="M2439.3-11.7l175.7,164.2-175.7,164.2h-351.4l-175.7-164.2,175.7-164.2h351.4M2440.4-12.7h-353.5l-176.8,165.2,176.8,165.2h353.5l176.8-165.2-176.8-165.2h0Z"/>
  </g>
  <g class="st79">
    <g>
      <polygon class="st34" points="1648 1736.4 1648 1440 1809.5 1292 1971 1440 1971 1736.4 1809.5 1884.4 1648 1736.4"/>
      <path d="M1809.5,1292.7l161,147.5v296l-161,147.5-161-147.5v-296l161-147.5M1809.5,1291.3l-162,148.4v296.9l162,148.4,162-148.4v-296.9l-162-148.4h0Z"/>
    </g>
    <g>
      <polygon class="st34" points="1648 1595.1 1648 1298.6 1809.5 1150.7 1971 1298.6 1971 1595.1 1809.5 1743 1648 1595.1"/>
      <path d="M1809.5,1151.3l161,147.5v296l-161,147.5-161-147.5v-296l161-147.5M1809.5,1150l-162,148.4v296.9l162,148.4,162-148.4v-296.9l-162-148.4h0Z"/>
    </g>
    <g>
      <polygon class="st34" points="1648 1453.7 1648 1157.3 1809.5 1009.3 1971 1157.3 1971 1453.7 1809.5 1601.7 1648 1453.7"/>
      <path d="M1809.5,1010l161,147.5v296l-161,147.5-161-147.5v-296l161-147.5M1809.5,1008.7l-162,148.4v296.9l162,148.4,162-148.4v-296.9l-162-148.4h0Z"/>
    </g>
    <g>
      <polygon class="st34" points="1648 1312.4 1648 1016 1809.5 868 1971 1016 1971 1312.4 1809.5 1460.3 1648 1312.4"/>
      <path d="M1809.5,868.7l161,147.5v296l-161,147.5-161-147.5v-296l161-147.5M1809.5,867.3l-162,148.4v296.9l162,148.4,162-148.4v-296.9l-162-148.4h0Z"/>
    </g>
    <g>
      <polygon class="st34" points="1648 1171 1648 874.6 1809.5 726.7 1971 874.6 1971 1171 1809.5 1319 1648 1171"/>
      <path d="M1809.5,727.3l161,147.5v296l-161,147.5-161-147.5v-296l161-147.5M1809.5,726l-162,148.4v296.9l162,148.4,162-148.4v-296.9l-162-148.4h0Z"/>
    </g>
    <g>
      <polygon class="st34" points="1648 1029.7 1648 733.3 1809.5 585.3 1971 733.3 1971 1029.7 1809.5 1177.7 1648 1029.7"/>
      <path d="M1809.5,586l161,147.5v296l-161,147.5-161-147.5v-296l161-147.5M1809.5,584.7l-162,148.4v296.9l162,148.4,162-148.4v-296.9l-162-148.4h0Z"/>
    </g>
    <g>
      <polygon class="st34" points="1648 888.4 1648 592 1809.5 444 1971 592 1971 888.4 1809.5 1036.3 1648 888.4"/>
      <path d="M1809.5,444.7l161,147.5v296l-161,147.5-161-147.5v-296l161-147.5M1809.5,443.3l-162,148.4v296.9l162,148.4,162-148.4v-296.9l-162-148.4h0Z"/>
    </g>
    <g>
      <polygon class="st34" points="1648 747 1648 450.6 1809.5 302.7 1971 450.6 1971 747 1809.5 895 1648 747"/>
      <path d="M1809.5,303.3l161,147.5v296l-161,147.5-161-147.5v-296l161-147.5M1809.5,302l-162,148.4v296.9l162,148.4,162-148.4v-296.9l-162-148.4h0Z"/>
    </g>
    <g>
      <polygon class="st34" points="1648 605.7 1648 309.3 1809.5 161.3 1971 309.3 1971 605.7 1809.5 753.7 1648 605.7"/>
      <path d="M1809.5,162l161,147.5v296l-161,147.5-161-147.5v-296l161-147.5M1809.5,160.6l-162,148.4v296.9l162,148.4,162-148.4v-296.9l-162-148.4h0Z"/>
    </g>
    <g>
      <polygon class="st34" points="1648 464.4 1648 168 1809.5 20 1971 168 1971 464.4 1809.5 612.3 1648 464.4"/>
      <path d="M1809.5,20.7l161,147.5v296l-161,147.5-161-147.5V168.2l161-147.5M1809.5,19.3l-162,148.4v296.9l162,148.4,162-148.4V167.7l-162-148.4h0Z"/>
    </g>
    <g>
      <polygon class="st34" points="1648 323 1648 26.6 1809.5 -121.3 1971 26.6 1971 323 1809.5 471 1648 323"/>
      <path d="M1809.5-120.7l161,147.5v296l-161,147.5-161-147.5V26.8l161-147.5M1809.5-122l-162,148.4v296.9l162,148.4,162-148.4V26.4l-162-148.4h0Z"/>
    </g>
    <g>
      <polygon class="st34" points="1648 181.7 1648 -114.7 1809.5 -262.7 1971 -114.7 1971 181.7 1809.5 329.7 1648 181.7"/>
      <path d="M1809.5-262l161,147.5V181.5l-161,147.5-161-147.5V-114.5l161-147.5M1809.5-263.4l-162,148.4V181.9l162,148.4,162-148.4V-114.9l-162-148.4h0Z"/>
    </g>
    <g>
      <polygon class="st34" points="1648 40.4 1648 -256 1809.5 -404 1971 -256 1971 40.4 1809.5 188.3 1648 40.4"/>
      <path d="M1809.5-403.3l161,147.5V40.1l-161,147.5-161-147.5V-255.8l161-147.5M1809.5-404.7l-162,148.4V40.6l162,148.4,162-148.4v-296.9l-162-148.4h0Z"/>
    </g>
    <g>
      <polygon class="st34" points="1648 -101 1648 -397.4 1809.5 -545.3 1971 -397.4 1971 -101 1809.5 47 1648 -101"/>
      <path d="M1809.5-544.7l161,147.5V-101.2l-161,147.5-161-147.5v-296l161-147.5M1809.5-546l-162,148.4V-100.7l162,148.4,162-148.4v-296.9l-162-148.4h0Z"/>
    </g>
    <g>
      <polygon class="st34" points="1648 -242.3 1648 -538.7 1809.5 -686.7 1971 -538.7 1971 -242.3 1809.5 -94.3 1648 -242.3"/>
      <path d="M1809.5-686l161,147.5V-242.5l-161,147.5-161-147.5v-296l161-147.5M1809.5-687.4l-162,148.4V-242.1l162,148.4,162-148.4v-296.9l-162-148.4h0Z"/>
    </g>
    <g>
      <polygon class="st34" points="1648 -383.6 1648 -680 1809.5 -828 1971 -680 1971 -383.6 1809.5 -235.7 1648 -383.6"/>
      <path d="M1809.5-827.3l161,147.5v296l-161,147.5-161-147.5v-296l161-147.5M1809.5-828.7l-162,148.4v296.9l162,148.4,162-148.4v-296.9l-162-148.4h0Z"/>
    </g>
    <g>
      <polygon class="st34" points="1648 -525 1648 -821.4 1809.5 -969.4 1971 -821.4 1971 -525 1809.5 -377 1648 -525"/>
      <path d="M1809.5-968.7l161,147.5v296l-161,147.5-161-147.5v-296l161-147.5M1809.5-970l-162,148.4v296.9l162,148.4,162-148.4v-296.9l-162-148.4h0Z"/>
    </g>
  </g>
</svg>